<mxfile host="app.diagrams.net" modified="2023-04-23T06:29:00.389Z" agent="Mozilla/5.0 (Windows NT 10.0; Win64; x64) AppleWebKit/537.36 (KHTML, like Gecko) Chrome/112.0.0.0 Safari/537.36" etag="b5fVWjMjyb3c4b85v5Tq" version="21.2.1" type="device">
  <diagram id="R2lEEEUBdFMjLlhIrx00" name="Page-1">
    <mxGraphModel dx="1050" dy="523" grid="1" gridSize="10" guides="1" tooltips="1" connect="1" arrows="1" fold="1" page="1" pageScale="1" pageWidth="850" pageHeight="1100" math="0" shadow="0" extFonts="Permanent Marker^https://fonts.googleapis.com/css?family=Permanent+Marker">
      <root>
        <mxCell id="0" />
        <mxCell id="1" parent="0" />
        <mxCell id="vYuvH1Ox7ozpqlRXi8tO-2" value="&lt;font style=&quot;font-size: 18px;&quot;&gt;Customer&lt;/font&gt;" style="rounded=0;whiteSpace=wrap;html=1;" parent="1" vertex="1">
          <mxGeometry x="70" y="540" width="270" height="30" as="geometry" />
        </mxCell>
        <mxCell id="vYuvH1Ox7ozpqlRXi8tO-4" value="" style="rounded=0;whiteSpace=wrap;html=1;" parent="1" vertex="1">
          <mxGeometry x="70" y="570" width="270" height="60" as="geometry" />
        </mxCell>
        <mxCell id="vYuvH1Ox7ozpqlRXi8tO-8" value="" style="rounded=0;whiteSpace=wrap;html=1;" parent="1" vertex="1">
          <mxGeometry x="70" y="610" width="270" height="110" as="geometry" />
        </mxCell>
        <mxCell id="vYuvH1Ox7ozpqlRXi8tO-9" value="" style="endArrow=none;html=1;rounded=0;entryX=0.25;entryY=0;entryDx=0;entryDy=0;exitX=0.187;exitY=1.016;exitDx=0;exitDy=0;exitPerimeter=0;" parent="1" source="vYuvH1Ox7ozpqlRXi8tO-8" edge="1">
          <mxGeometry width="50" height="50" relative="1" as="geometry">
            <mxPoint x="120" y="690" as="sourcePoint" />
            <mxPoint x="120" y="570" as="targetPoint" />
          </mxGeometry>
        </mxCell>
        <mxCell id="vYuvH1Ox7ozpqlRXi8tO-10" value="&lt;font style=&quot;font-size: 14px;&quot;&gt;PK&lt;/font&gt;" style="text;html=1;strokeColor=none;fillColor=none;align=center;verticalAlign=middle;whiteSpace=wrap;rounded=0;" parent="1" vertex="1">
          <mxGeometry x="70" y="570" width="50" height="30" as="geometry" />
        </mxCell>
        <mxCell id="vYuvH1Ox7ozpqlRXi8tO-11" value="&lt;u&gt;&lt;font style=&quot;font-size: 14px;&quot;&gt;customer_no int NOT NULL&lt;/font&gt;&lt;/u&gt;" style="text;html=1;strokeColor=none;fillColor=none;align=center;verticalAlign=middle;whiteSpace=wrap;rounded=0;" parent="1" vertex="1">
          <mxGeometry x="120" y="570" width="210" height="30" as="geometry" />
        </mxCell>
        <mxCell id="vYuvH1Ox7ozpqlRXi8tO-16" value="&lt;font style=&quot;font-size: 14px;&quot;&gt;name&amp;nbsp; char(100) NOT NULL&lt;br&gt;address&amp;nbsp; char(200) NOT NULL&lt;br&gt;home&amp;nbsp; char(12)&lt;br&gt;mobile&amp;nbsp; char(12)&lt;br&gt;email&amp;nbsp; char(20)&lt;br&gt;NIC&amp;nbsp; char(10)&lt;/font&gt;" style="text;html=1;strokeColor=none;fillColor=none;align=left;verticalAlign=middle;whiteSpace=wrap;rounded=0;" parent="1" vertex="1">
          <mxGeometry x="130" y="650" width="210" height="30" as="geometry" />
        </mxCell>
        <mxCell id="vYuvH1Ox7ozpqlRXi8tO-17" value="&lt;font style=&quot;font-size: 18px;&quot;&gt;Order&lt;/font&gt;" style="rounded=0;whiteSpace=wrap;html=1;" parent="1" vertex="1">
          <mxGeometry x="460" y="540" width="270" height="30" as="geometry" />
        </mxCell>
        <mxCell id="vYuvH1Ox7ozpqlRXi8tO-18" value="" style="rounded=0;whiteSpace=wrap;html=1;" parent="1" vertex="1">
          <mxGeometry x="460" y="570" width="270" height="60" as="geometry" />
        </mxCell>
        <mxCell id="vYuvH1Ox7ozpqlRXi8tO-19" value="" style="rounded=0;whiteSpace=wrap;html=1;" parent="1" vertex="1">
          <mxGeometry x="460" y="610" width="270" height="90" as="geometry" />
        </mxCell>
        <mxCell id="vYuvH1Ox7ozpqlRXi8tO-20" value="" style="endArrow=none;html=1;rounded=0;entryX=0.25;entryY=0;entryDx=0;entryDy=0;exitX=0.187;exitY=1.016;exitDx=0;exitDy=0;exitPerimeter=0;" parent="1" source="vYuvH1Ox7ozpqlRXi8tO-19" edge="1">
          <mxGeometry width="50" height="50" relative="1" as="geometry">
            <mxPoint x="510" y="690" as="sourcePoint" />
            <mxPoint x="510" y="570" as="targetPoint" />
          </mxGeometry>
        </mxCell>
        <mxCell id="vYuvH1Ox7ozpqlRXi8tO-21" value="&lt;font style=&quot;font-size: 14px;&quot;&gt;PK&lt;/font&gt;" style="text;html=1;strokeColor=none;fillColor=none;align=center;verticalAlign=middle;whiteSpace=wrap;rounded=0;" parent="1" vertex="1">
          <mxGeometry x="450" y="570" width="60" height="30" as="geometry" />
        </mxCell>
        <mxCell id="vYuvH1Ox7ozpqlRXi8tO-22" value="&lt;u&gt;&lt;font style=&quot;font-size: 14px;&quot;&gt;order_no int NOT NULL&lt;/font&gt;&lt;/u&gt;" style="text;html=1;strokeColor=none;fillColor=none;align=center;verticalAlign=middle;whiteSpace=wrap;rounded=0;" parent="1" vertex="1">
          <mxGeometry x="490" y="570" width="210" height="30" as="geometry" />
        </mxCell>
        <mxCell id="vYuvH1Ox7ozpqlRXi8tO-23" value="&lt;font style=&quot;font-size: 14px;&quot;&gt;status char(30) NOT NULL&lt;br&gt;details char(500) NOT NULL&lt;/font&gt;" style="text;html=1;strokeColor=none;fillColor=none;align=left;verticalAlign=middle;whiteSpace=wrap;rounded=0;" parent="1" vertex="1">
          <mxGeometry x="520" y="650" width="210" height="30" as="geometry" />
        </mxCell>
        <mxCell id="vYuvH1Ox7ozpqlRXi8tO-24" value="&lt;span style=&quot;font-size: 14px;&quot;&gt;FK1&lt;/span&gt;" style="text;html=1;strokeColor=none;fillColor=none;align=center;verticalAlign=middle;whiteSpace=wrap;rounded=0;" parent="1" vertex="1">
          <mxGeometry x="460" y="610" width="40" height="30" as="geometry" />
        </mxCell>
        <mxCell id="vYuvH1Ox7ozpqlRXi8tO-26" value="&lt;font style=&quot;font-size: 14px;&quot;&gt;customer_no int NOT NULL&lt;/font&gt;" style="text;html=1;strokeColor=none;fillColor=none;align=center;verticalAlign=middle;whiteSpace=wrap;rounded=0;" parent="1" vertex="1">
          <mxGeometry x="500" y="610" width="210" height="30" as="geometry" />
        </mxCell>
        <mxCell id="vYuvH1Ox7ozpqlRXi8tO-34" value="&lt;font style=&quot;font-size: 18px;&quot;&gt;Bill&lt;/font&gt;" style="rounded=0;whiteSpace=wrap;html=1;" parent="1" vertex="1">
          <mxGeometry x="450" y="790" width="280" height="30" as="geometry" />
        </mxCell>
        <mxCell id="vYuvH1Ox7ozpqlRXi8tO-35" value="" style="rounded=0;whiteSpace=wrap;html=1;" parent="1" vertex="1">
          <mxGeometry x="450" y="820" width="280" height="60" as="geometry" />
        </mxCell>
        <mxCell id="vYuvH1Ox7ozpqlRXi8tO-36" value="" style="rounded=0;whiteSpace=wrap;html=1;" parent="1" vertex="1">
          <mxGeometry x="450" y="860" width="280" height="110" as="geometry" />
        </mxCell>
        <mxCell id="vYuvH1Ox7ozpqlRXi8tO-37" value="" style="endArrow=none;html=1;rounded=0;entryX=0.25;entryY=0;entryDx=0;entryDy=0;exitX=0.187;exitY=1.016;exitDx=0;exitDy=0;exitPerimeter=0;" parent="1" source="vYuvH1Ox7ozpqlRXi8tO-36" edge="1">
          <mxGeometry width="50" height="50" relative="1" as="geometry">
            <mxPoint x="500" y="940" as="sourcePoint" />
            <mxPoint x="500" y="820" as="targetPoint" />
          </mxGeometry>
        </mxCell>
        <mxCell id="vYuvH1Ox7ozpqlRXi8tO-38" value="&lt;font style=&quot;font-size: 14px;&quot;&gt;PK&lt;/font&gt;" style="text;html=1;strokeColor=none;fillColor=none;align=center;verticalAlign=middle;whiteSpace=wrap;rounded=0;" parent="1" vertex="1">
          <mxGeometry x="440" y="820" width="60" height="30" as="geometry" />
        </mxCell>
        <mxCell id="vYuvH1Ox7ozpqlRXi8tO-39" value="&lt;u&gt;&lt;font style=&quot;font-size: 14px;&quot;&gt;bill_no int NOT NULL&lt;/font&gt;&lt;/u&gt;" style="text;html=1;strokeColor=none;fillColor=none;align=center;verticalAlign=middle;whiteSpace=wrap;rounded=0;" parent="1" vertex="1">
          <mxGeometry x="480" y="820" width="210" height="30" as="geometry" />
        </mxCell>
        <mxCell id="vYuvH1Ox7ozpqlRXi8tO-40" value="&lt;font style=&quot;font-size: 14px;&quot;&gt;bill_details&amp;nbsp; char(500) NOT NULL&lt;/font&gt;" style="text;html=1;strokeColor=none;fillColor=none;align=left;verticalAlign=middle;whiteSpace=wrap;rounded=0;" parent="1" vertex="1">
          <mxGeometry x="510" y="930" width="210" height="30" as="geometry" />
        </mxCell>
        <mxCell id="vYuvH1Ox7ozpqlRXi8tO-41" value="&lt;span style=&quot;font-size: 14px;&quot;&gt;FK1&lt;/span&gt;" style="text;html=1;strokeColor=none;fillColor=none;align=center;verticalAlign=middle;whiteSpace=wrap;rounded=0;" parent="1" vertex="1">
          <mxGeometry x="440" y="860" width="60" height="30" as="geometry" />
        </mxCell>
        <mxCell id="vYuvH1Ox7ozpqlRXi8tO-42" value="&lt;font style=&quot;font-size: 14px;&quot;&gt;cashier_no int NOT NULL&lt;/font&gt;" style="text;html=1;strokeColor=none;fillColor=none;align=center;verticalAlign=middle;whiteSpace=wrap;rounded=0;" parent="1" vertex="1">
          <mxGeometry x="490" y="860" width="210" height="30" as="geometry" />
        </mxCell>
        <mxCell id="vYuvH1Ox7ozpqlRXi8tO-43" value="&lt;span style=&quot;font-size: 14px;&quot;&gt;FK2&lt;/span&gt;" style="text;html=1;strokeColor=none;fillColor=none;align=center;verticalAlign=middle;whiteSpace=wrap;rounded=0;" parent="1" vertex="1">
          <mxGeometry x="450" y="880" width="40" height="30" as="geometry" />
        </mxCell>
        <mxCell id="vYuvH1Ox7ozpqlRXi8tO-44" value="&lt;font style=&quot;font-size: 14px;&quot;&gt;customer_no int NOT NULL&lt;/font&gt;" style="text;html=1;strokeColor=none;fillColor=none;align=center;verticalAlign=middle;whiteSpace=wrap;rounded=0;" parent="1" vertex="1">
          <mxGeometry x="500" y="880" width="200" height="30" as="geometry" />
        </mxCell>
        <mxCell id="vYuvH1Ox7ozpqlRXi8tO-45" value="&lt;span style=&quot;font-size: 14px;&quot;&gt;FK3&lt;/span&gt;" style="text;html=1;strokeColor=none;fillColor=none;align=center;verticalAlign=middle;whiteSpace=wrap;rounded=0;" parent="1" vertex="1">
          <mxGeometry x="440" y="900" width="60" height="30" as="geometry" />
        </mxCell>
        <mxCell id="vYuvH1Ox7ozpqlRXi8tO-47" value="&lt;font style=&quot;font-size: 14px;&quot;&gt;order_no int NOT NULL&lt;/font&gt;" style="text;html=1;strokeColor=none;fillColor=none;align=center;verticalAlign=middle;whiteSpace=wrap;rounded=0;" parent="1" vertex="1">
          <mxGeometry x="490" y="900" width="200" height="30" as="geometry" />
        </mxCell>
        <mxCell id="vYuvH1Ox7ozpqlRXi8tO-48" value="" style="edgeStyle=entityRelationEdgeStyle;endArrow=ERzeroToMany;startArrow=ERone;endFill=1;startFill=0;exitX=1;exitY=0.25;exitDx=0;exitDy=0;" parent="1" edge="1" target="vYuvH1Ox7ozpqlRXi8tO-24" source="vYuvH1Ox7ozpqlRXi8tO-4">
          <mxGeometry width="100" height="100" relative="1" as="geometry">
            <mxPoint x="360" y="585" as="sourcePoint" />
            <mxPoint x="440" y="615" as="targetPoint" />
          </mxGeometry>
        </mxCell>
        <mxCell id="vYuvH1Ox7ozpqlRXi8tO-49" value="&lt;font style=&quot;font-size: 18px;&quot;&gt;Employee&lt;/font&gt;" style="rounded=0;whiteSpace=wrap;html=1;" parent="1" vertex="1">
          <mxGeometry x="40" y="788.14" width="310" height="30" as="geometry" />
        </mxCell>
        <mxCell id="vYuvH1Ox7ozpqlRXi8tO-50" value="" style="rounded=0;whiteSpace=wrap;html=1;" parent="1" vertex="1">
          <mxGeometry x="40" y="818.14" width="310" height="60" as="geometry" />
        </mxCell>
        <mxCell id="vYuvH1Ox7ozpqlRXi8tO-51" value="" style="rounded=0;whiteSpace=wrap;html=1;" parent="1" vertex="1">
          <mxGeometry x="40" y="869.9" width="310" height="100" as="geometry" />
        </mxCell>
        <mxCell id="vYuvH1Ox7ozpqlRXi8tO-52" value="" style="endArrow=none;html=1;rounded=0;entryX=0.856;entryY=0.016;entryDx=0;entryDy=0;exitX=0.13;exitY=1.001;exitDx=0;exitDy=0;exitPerimeter=0;entryPerimeter=0;" parent="1" source="vYuvH1Ox7ozpqlRXi8tO-51" target="vYuvH1Ox7ozpqlRXi8tO-53" edge="1">
          <mxGeometry width="50" height="50" relative="1" as="geometry">
            <mxPoint x="90" y="938.14" as="sourcePoint" />
            <mxPoint x="90" y="818.14" as="targetPoint" />
          </mxGeometry>
        </mxCell>
        <mxCell id="vYuvH1Ox7ozpqlRXi8tO-53" value="&lt;font style=&quot;font-size: 14px;&quot;&gt;PK&lt;/font&gt;" style="text;html=1;strokeColor=none;fillColor=none;align=center;verticalAlign=middle;whiteSpace=wrap;rounded=0;" parent="1" vertex="1">
          <mxGeometry x="30" y="818.14" width="60" height="30" as="geometry" />
        </mxCell>
        <mxCell id="vYuvH1Ox7ozpqlRXi8tO-54" value="&lt;u&gt;&lt;font style=&quot;font-size: 14px;&quot;&gt;employee_no int NOT NULL&lt;/font&gt;&lt;/u&gt;" style="text;html=1;strokeColor=none;fillColor=none;align=center;verticalAlign=middle;whiteSpace=wrap;rounded=0;" parent="1" vertex="1">
          <mxGeometry x="90" y="818.14" width="210" height="30" as="geometry" />
        </mxCell>
        <mxCell id="vYuvH1Ox7ozpqlRXi8tO-62" value="&lt;font style=&quot;font-size: 14px;&quot;&gt;PK&lt;/font&gt;" style="text;html=1;strokeColor=none;fillColor=none;align=center;verticalAlign=middle;whiteSpace=wrap;rounded=0;" parent="1" vertex="1">
          <mxGeometry x="30" y="834.9" width="60" height="30" as="geometry" />
        </mxCell>
        <mxCell id="vYuvH1Ox7ozpqlRXi8tO-63" value="&lt;span style=&quot;font-size: 14px;&quot;&gt;&lt;u&gt;username&amp;nbsp; char(100) NOT NULL&lt;/u&gt;&lt;/span&gt;" style="text;html=1;strokeColor=none;fillColor=none;align=center;verticalAlign=middle;whiteSpace=wrap;rounded=0;" parent="1" vertex="1">
          <mxGeometry x="100" y="834.9" width="220" height="30" as="geometry" />
        </mxCell>
        <mxCell id="vYuvH1Ox7ozpqlRXi8tO-64" value="&lt;font style=&quot;font-size: 14px;&quot;&gt;name&amp;nbsp; char(100) NOT NULL&lt;br&gt;password&amp;nbsp; char(20) NOT NULL&lt;br&gt;mobile&amp;nbsp; char(12)&lt;br&gt;email&amp;nbsp; char(20)&lt;br&gt;employee_details&amp;nbsp; char(300)&lt;/font&gt;" style="text;html=1;strokeColor=none;fillColor=none;align=left;verticalAlign=middle;whiteSpace=wrap;rounded=0;" parent="1" vertex="1">
          <mxGeometry x="105" y="899.9" width="210" height="30" as="geometry" />
        </mxCell>
        <mxCell id="Htd48bdtPLbgu2SjIVT1-3" value="" style="edgeStyle=entityRelationEdgeStyle;endArrow=ERzeroToMany;startArrow=ERone;endFill=1;startFill=0;exitX=1;exitY=0.25;exitDx=0;exitDy=0;entryX=0;entryY=0.5;entryDx=0;entryDy=0;" edge="1" parent="1" source="vYuvH1Ox7ozpqlRXi8tO-4" target="vYuvH1Ox7ozpqlRXi8tO-43">
          <mxGeometry width="100" height="100" relative="1" as="geometry">
            <mxPoint x="370" y="615" as="sourcePoint" />
            <mxPoint x="490" y="655" as="targetPoint" />
          </mxGeometry>
        </mxCell>
        <mxCell id="Htd48bdtPLbgu2SjIVT1-4" value="" style="edgeStyle=entityRelationEdgeStyle;endArrow=ERzeroToMany;startArrow=ERone;endFill=1;startFill=0;exitX=1;exitY=0.25;exitDx=0;exitDy=0;entryX=0;entryY=0;entryDx=0;entryDy=0;" edge="1" parent="1" source="vYuvH1Ox7ozpqlRXi8tO-50" target="vYuvH1Ox7ozpqlRXi8tO-43">
          <mxGeometry width="100" height="100" relative="1" as="geometry">
            <mxPoint x="380" y="625" as="sourcePoint" />
            <mxPoint x="500" y="665" as="targetPoint" />
          </mxGeometry>
        </mxCell>
        <mxCell id="Htd48bdtPLbgu2SjIVT1-5" value="" style="edgeStyle=entityRelationEdgeStyle;endArrow=ERzeroToMany;startArrow=ERone;endFill=1;startFill=0;exitX=1;exitY=0.25;exitDx=0;exitDy=0;entryX=1;entryY=0.5;entryDx=0;entryDy=0;" edge="1" parent="1" source="vYuvH1Ox7ozpqlRXi8tO-18" target="vYuvH1Ox7ozpqlRXi8tO-36">
          <mxGeometry width="100" height="100" relative="1" as="geometry">
            <mxPoint x="390" y="635" as="sourcePoint" />
            <mxPoint x="510" y="675" as="targetPoint" />
          </mxGeometry>
        </mxCell>
      </root>
    </mxGraphModel>
  </diagram>
</mxfile>
